<mxfile host="app.diagrams.net" modified="2022-05-12T02:48:28.722Z" agent="5.0 (Windows NT 10.0; Win64; x64) AppleWebKit/537.36 (KHTML, like Gecko) Chrome/101.0.4951.54 Safari/537.36" etag="GBBy-GgRGBxliUW9zDW_" version="17.1.3" type="github">
  <diagram id="09wBBcTmgOhWCivBgYtk" name="Page-1">
    <mxGraphModel dx="1038" dy="547" grid="1" gridSize="10" guides="1" tooltips="1" connect="1" arrows="1" fold="1" page="1" pageScale="1" pageWidth="827" pageHeight="1169" math="0" shadow="0">
      <root>
        <mxCell id="0" />
        <mxCell id="1" parent="0" />
        <mxCell id="dCjNt5SbbcOR6OjELl-c-1" value="" style="rounded=0;whiteSpace=wrap;html=1;" vertex="1" parent="1">
          <mxGeometry x="40" y="40" width="730" height="460" as="geometry" />
        </mxCell>
        <mxCell id="dCjNt5SbbcOR6OjELl-c-2" value="" style="rounded=0;whiteSpace=wrap;html=1;" vertex="1" parent="1">
          <mxGeometry x="40" y="40" width="180" height="460" as="geometry" />
        </mxCell>
        <mxCell id="dCjNt5SbbcOR6OjELl-c-3" value="" style="rounded=1;arcSize=36;whiteSpace=wrap;html=1;align=center;fontFamily=Helvetica;fontSize=10;fontColor=default;strokeColor=default;fillColor=default;" vertex="1" parent="1">
          <mxGeometry x="47.19" y="427.5" width="165" height="30" as="geometry" />
        </mxCell>
        <mxCell id="dCjNt5SbbcOR6OjELl-c-4" value="" style="rounded=0;whiteSpace=wrap;html=1;fontFamily=Helvetica;fontSize=10;fontColor=default;strokeColor=default;strokeWidth=1;fillColor=default;gradientColor=none;" vertex="1" parent="1">
          <mxGeometry x="230" y="67.5" width="530" height="422.5" as="geometry" />
        </mxCell>
        <mxCell id="dCjNt5SbbcOR6OjELl-c-5" value="" style="rounded=1;arcSize=36;whiteSpace=wrap;html=1;align=center;fontFamily=Helvetica;fontSize=10;fontColor=default;strokeColor=default;fillColor=default;" vertex="1" parent="1">
          <mxGeometry x="45" y="160" width="165" height="30" as="geometry" />
        </mxCell>
        <mxCell id="dCjNt5SbbcOR6OjELl-c-6" value="" style="rounded=1;arcSize=36;whiteSpace=wrap;html=1;align=center;fontFamily=Helvetica;fontSize=10;fontColor=default;strokeColor=default;fillColor=default;" vertex="1" parent="1">
          <mxGeometry x="47.19" y="390" width="165" height="30" as="geometry" />
        </mxCell>
        <mxCell id="dCjNt5SbbcOR6OjELl-c-7" value="" style="rounded=1;arcSize=36;whiteSpace=wrap;html=1;align=center;fontFamily=Helvetica;fontSize=10;fontColor=default;strokeColor=default;fillColor=default;" vertex="1" parent="1">
          <mxGeometry x="45" y="100" width="165" height="30" as="geometry" />
        </mxCell>
        <mxCell id="dCjNt5SbbcOR6OjELl-c-8" value="Nhóm 5" style="text;html=1;strokeColor=none;fillColor=none;align=center;verticalAlign=middle;whiteSpace=wrap;rounded=0;fontSize=12;" vertex="1" parent="1">
          <mxGeometry x="110" y="57.5" width="60" height="30" as="geometry" />
        </mxCell>
        <mxCell id="dCjNt5SbbcOR6OjELl-c-9" value="img" style="rounded=0;whiteSpace=wrap;html=1;" vertex="1" parent="1">
          <mxGeometry x="70" y="60" width="30" height="25" as="geometry" />
        </mxCell>
        <mxCell id="dCjNt5SbbcOR6OjELl-c-10" value="" style="rounded=1;arcSize=36;whiteSpace=wrap;html=1;align=center;fontFamily=Helvetica;fontSize=10;fontColor=default;strokeColor=default;fillColor=default;" vertex="1" parent="1">
          <mxGeometry x="45" y="260" width="165" height="30" as="geometry" />
        </mxCell>
        <mxCell id="dCjNt5SbbcOR6OjELl-c-11" value="icon" style="rounded=0;whiteSpace=wrap;html=1;" vertex="1" parent="1">
          <mxGeometry x="50" y="107.5" width="30" height="15" as="geometry" />
        </mxCell>
        <mxCell id="dCjNt5SbbcOR6OjELl-c-12" value="" style="rounded=1;arcSize=36;whiteSpace=wrap;html=1;align=center;fontFamily=Helvetica;fontSize=10;fontColor=default;strokeColor=default;fillColor=default;" vertex="1" parent="1">
          <mxGeometry x="45" y="195" width="165" height="30" as="geometry" />
        </mxCell>
        <mxCell id="dCjNt5SbbcOR6OjELl-c-13" value="" style="line;strokeWidth=2;html=1;rounded=0;fontFamily=Helvetica;fontSize=12;fontColor=default;fillColor=default;" vertex="1" parent="1">
          <mxGeometry x="50" y="90" width="160" height="10" as="geometry" />
        </mxCell>
        <mxCell id="dCjNt5SbbcOR6OjELl-c-14" value="Trang chủ admin" style="text;html=1;strokeColor=none;fillColor=none;align=center;verticalAlign=middle;whiteSpace=wrap;rounded=0;fontSize=10;" vertex="1" parent="1">
          <mxGeometry x="90" y="107.5" width="80" height="15" as="geometry" />
        </mxCell>
        <mxCell id="dCjNt5SbbcOR6OjELl-c-15" value="" style="line;strokeWidth=2;html=1;rounded=0;fontFamily=Helvetica;fontSize=12;fontColor=default;fillColor=default;" vertex="1" parent="1">
          <mxGeometry x="50" y="130" width="160" height="10" as="geometry" />
        </mxCell>
        <mxCell id="dCjNt5SbbcOR6OjELl-c-16" value="Loại danh mục" style="text;html=1;strokeColor=none;fillColor=none;align=center;verticalAlign=middle;whiteSpace=wrap;rounded=0;fontSize=10;" vertex="1" parent="1">
          <mxGeometry x="90" y="170" width="70" height="10" as="geometry" />
        </mxCell>
        <mxCell id="dCjNt5SbbcOR6OjELl-c-17" value="Sản Phẩm" style="text;html=1;strokeColor=none;fillColor=none;align=center;verticalAlign=middle;whiteSpace=wrap;rounded=0;fontSize=10;" vertex="1" parent="1">
          <mxGeometry x="90" y="202.5" width="50" height="15" as="geometry" />
        </mxCell>
        <mxCell id="dCjNt5SbbcOR6OjELl-c-18" value="Khách hàng - đối tác" style="text;html=1;strokeColor=none;fillColor=none;align=center;verticalAlign=middle;whiteSpace=wrap;rounded=0;fontSize=10;" vertex="1" parent="1">
          <mxGeometry x="90" y="267.5" width="100" height="15" as="geometry" />
        </mxCell>
        <mxCell id="dCjNt5SbbcOR6OjELl-c-19" value="" style="line;strokeWidth=2;html=1;rounded=0;fontFamily=Helvetica;fontSize=12;fontColor=default;fillColor=default;" vertex="1" parent="1">
          <mxGeometry x="50" y="230" width="160" height="10" as="geometry" />
        </mxCell>
        <mxCell id="dCjNt5SbbcOR6OjELl-c-20" value="Quản trị danh mục" style="text;html=1;strokeColor=none;fillColor=none;align=center;verticalAlign=middle;whiteSpace=wrap;rounded=0;fontSize=10;" vertex="1" parent="1">
          <mxGeometry x="45" y="140" width="95" height="20" as="geometry" />
        </mxCell>
        <mxCell id="dCjNt5SbbcOR6OjELl-c-21" value="Thống kê" style="text;html=1;strokeColor=none;fillColor=none;align=center;verticalAlign=middle;whiteSpace=wrap;rounded=0;fontSize=10;" vertex="1" parent="1">
          <mxGeometry x="50" y="240" width="50" height="20" as="geometry" />
        </mxCell>
        <mxCell id="dCjNt5SbbcOR6OjELl-c-22" value="Doanh Thu" style="text;html=1;strokeColor=none;fillColor=none;align=center;verticalAlign=middle;whiteSpace=wrap;rounded=0;fontSize=10;" vertex="1" parent="1">
          <mxGeometry x="92.19" y="397.5" width="60" height="15" as="geometry" />
        </mxCell>
        <mxCell id="dCjNt5SbbcOR6OjELl-c-23" value="Tài Khoản" style="text;html=1;strokeColor=none;fillColor=none;align=center;verticalAlign=middle;whiteSpace=wrap;rounded=0;fontSize=10;" vertex="1" parent="1">
          <mxGeometry x="92.19" y="435" width="60" height="15" as="geometry" />
        </mxCell>
        <mxCell id="dCjNt5SbbcOR6OjELl-c-24" value="icon" style="rounded=0;whiteSpace=wrap;html=1;" vertex="1" parent="1">
          <mxGeometry x="50" y="167.5" width="30" height="15" as="geometry" />
        </mxCell>
        <mxCell id="dCjNt5SbbcOR6OjELl-c-25" value="icon" style="rounded=0;whiteSpace=wrap;html=1;" vertex="1" parent="1">
          <mxGeometry x="50" y="202.5" width="30" height="15" as="geometry" />
        </mxCell>
        <mxCell id="dCjNt5SbbcOR6OjELl-c-26" value="icon" style="rounded=0;whiteSpace=wrap;html=1;" vertex="1" parent="1">
          <mxGeometry x="50" y="267.5" width="30" height="15" as="geometry" />
        </mxCell>
        <mxCell id="dCjNt5SbbcOR6OjELl-c-27" value="icon" style="rounded=0;whiteSpace=wrap;html=1;" vertex="1" parent="1">
          <mxGeometry x="52.19" y="397.5" width="30" height="15" as="geometry" />
        </mxCell>
        <mxCell id="dCjNt5SbbcOR6OjELl-c-28" value="icon" style="rounded=0;whiteSpace=wrap;html=1;" vertex="1" parent="1">
          <mxGeometry x="52.19" y="435" width="30" height="15" as="geometry" />
        </mxCell>
        <mxCell id="dCjNt5SbbcOR6OjELl-c-29" value="Nhà cung cấp" style="text;html=1;strokeColor=none;fillColor=none;align=center;verticalAlign=middle;whiteSpace=wrap;rounded=0;fontSize=12;" vertex="1" parent="1">
          <mxGeometry x="220" y="37.5" width="90" height="30" as="geometry" />
        </mxCell>
        <mxCell id="dCjNt5SbbcOR6OjELl-c-30" value="Danh sách&amp;nbsp; nhà cung cấp" style="text;html=1;strokeColor=none;fillColor=none;align=center;verticalAlign=middle;whiteSpace=wrap;rounded=0;fontFamily=Helvetica;fontSize=10;fontColor=default;" vertex="1" parent="1">
          <mxGeometry x="240" y="72.5" width="120" height="17.5" as="geometry" />
        </mxCell>
        <mxCell id="dCjNt5SbbcOR6OjELl-c-31" value="&amp;gt;" style="rounded=0;whiteSpace=wrap;html=1;fontFamily=Helvetica;fontSize=10;fontColor=default;strokeColor=default;fillColor=default;strokeWidth=1;gradientColor=none;" vertex="1" parent="1">
          <mxGeometry x="190" y="170" width="10" height="10" as="geometry" />
        </mxCell>
        <mxCell id="dCjNt5SbbcOR6OjELl-c-32" value="&amp;gt;" style="rounded=0;whiteSpace=wrap;html=1;fontFamily=Helvetica;fontSize=10;fontColor=default;strokeColor=default;fillColor=default;strokeWidth=1;gradientColor=none;" vertex="1" parent="1">
          <mxGeometry x="190" y="207.5" width="10" height="10" as="geometry" />
        </mxCell>
        <mxCell id="dCjNt5SbbcOR6OjELl-c-33" value="&amp;gt;" style="rounded=0;whiteSpace=wrap;html=1;fontFamily=Helvetica;fontSize=10;fontColor=default;strokeColor=default;fillColor=default;strokeWidth=1;gradientColor=none;textOpacity=90;rotation=90;" vertex="1" parent="1">
          <mxGeometry x="190" y="270" width="10" height="10" as="geometry" />
        </mxCell>
        <mxCell id="dCjNt5SbbcOR6OjELl-c-34" value="" style="rounded=1;arcSize=8;whiteSpace=wrap;html=1;align=center;fontFamily=Helvetica;fontSize=10;fontColor=default;strokeColor=default;fillColor=default;" vertex="1" parent="1">
          <mxGeometry x="47.19" y="290" width="160.62" height="90" as="geometry" />
        </mxCell>
        <mxCell id="dCjNt5SbbcOR6OjELl-c-35" value="Khách Hàng" style="text;html=1;strokeColor=none;fillColor=none;align=center;verticalAlign=middle;whiteSpace=wrap;rounded=0;fontFamily=Helvetica;fontSize=10;fontColor=default;textOpacity=90;spacing=2;spacingBottom=14;" vertex="1" parent="1">
          <mxGeometry x="52.5" y="302" width="57.5" height="10" as="geometry" />
        </mxCell>
        <mxCell id="dCjNt5SbbcOR6OjELl-c-36" value="Danh sách đơn hàng" style="text;html=1;strokeColor=none;fillColor=none;align=center;verticalAlign=middle;whiteSpace=wrap;rounded=0;fontFamily=Helvetica;fontSize=10;fontColor=default;" vertex="1" parent="1">
          <mxGeometry x="74.38" y="310" width="96.25" height="10" as="geometry" />
        </mxCell>
        <mxCell id="dCjNt5SbbcOR6OjELl-c-37" value="Danh sách khách hàng" style="text;html=1;strokeColor=none;fillColor=none;align=center;verticalAlign=middle;whiteSpace=wrap;rounded=0;fontFamily=Helvetica;fontSize=10;fontColor=default;" vertex="1" parent="1">
          <mxGeometry x="70" y="325" width="110.62" height="10" as="geometry" />
        </mxCell>
        <mxCell id="dCjNt5SbbcOR6OjELl-c-38" value="Đối tác" style="text;html=1;strokeColor=none;fillColor=none;align=center;verticalAlign=middle;whiteSpace=wrap;rounded=0;fontFamily=Helvetica;fontSize=10;fontColor=default;textOpacity=90;spacing=2;spacingBottom=0;" vertex="1" parent="1">
          <mxGeometry x="50" y="345" width="37.5" height="10" as="geometry" />
        </mxCell>
        <mxCell id="dCjNt5SbbcOR6OjELl-c-39" value="Danh sách đối tác" style="text;html=1;strokeColor=none;fillColor=none;align=center;verticalAlign=middle;whiteSpace=wrap;rounded=0;fontFamily=Helvetica;fontSize=10;fontColor=default;" vertex="1" parent="1">
          <mxGeometry x="74.38" y="362" width="85.62" height="10" as="geometry" />
        </mxCell>
        <mxCell id="dCjNt5SbbcOR6OjELl-c-40" value="" style="shape=table;html=1;whiteSpace=wrap;startSize=0;container=1;collapsible=0;childLayout=tableLayout;rounded=0;fontFamily=Helvetica;fontSize=7;fontColor=default;strokeColor=default;strokeWidth=1;fillColor=default;gradientColor=none;direction=east;flipV=1;" vertex="1" parent="1">
          <mxGeometry x="240" y="103.75" width="510" height="22.5" as="geometry" />
        </mxCell>
        <mxCell id="dCjNt5SbbcOR6OjELl-c-41" value="" style="shape=tableRow;horizontal=0;startSize=0;swimlaneHead=0;swimlaneBody=0;top=0;left=0;bottom=0;right=0;collapsible=0;dropTarget=0;fillColor=none;points=[[0,0.5],[1,0.5]];portConstraint=eastwest;rounded=0;fontFamily=Helvetica;fontSize=8;fontColor=default;strokeColor=default;strokeWidth=1;html=1;" vertex="1" parent="dCjNt5SbbcOR6OjELl-c-40">
          <mxGeometry width="510" height="23" as="geometry" />
        </mxCell>
        <mxCell id="dCjNt5SbbcOR6OjELl-c-42" value="&lt;font style=&quot;font-size: 8px&quot;&gt;id nhà cung cấp&lt;/font&gt;" style="shape=partialRectangle;html=1;whiteSpace=wrap;connectable=0;fillColor=none;top=0;left=0;bottom=0;right=0;overflow=hidden;rounded=0;fontFamily=Helvetica;fontSize=10;fontColor=default;strokeColor=default;strokeWidth=1;" vertex="1" parent="dCjNt5SbbcOR6OjELl-c-41">
          <mxGeometry width="100" height="23" as="geometry">
            <mxRectangle width="100" height="23" as="alternateBounds" />
          </mxGeometry>
        </mxCell>
        <mxCell id="dCjNt5SbbcOR6OjELl-c-43" value="&lt;font style=&quot;font-size: 8px&quot;&gt;Tên nhà cung cấp&lt;/font&gt;" style="shape=partialRectangle;html=1;whiteSpace=wrap;connectable=0;fillColor=none;top=0;left=0;bottom=0;right=0;overflow=hidden;rounded=0;fontFamily=Helvetica;fontSize=10;fontColor=default;strokeColor=default;strokeWidth=1;" vertex="1" parent="dCjNt5SbbcOR6OjELl-c-41">
          <mxGeometry x="100" width="150" height="23" as="geometry">
            <mxRectangle width="150" height="23" as="alternateBounds" />
          </mxGeometry>
        </mxCell>
        <mxCell id="dCjNt5SbbcOR6OjELl-c-45" value="&lt;font style=&quot;font-size: 8px&quot;&gt;Địa chỉ nhà cung cấp&lt;/font&gt;" style="shape=partialRectangle;html=1;whiteSpace=wrap;connectable=0;fillColor=none;top=0;left=0;bottom=0;right=0;overflow=hidden;rounded=0;fontFamily=Helvetica;fontSize=10;fontColor=default;strokeColor=default;strokeWidth=1;" vertex="1" parent="dCjNt5SbbcOR6OjELl-c-41">
          <mxGeometry x="250" width="140" height="23" as="geometry">
            <mxRectangle width="140" height="23" as="alternateBounds" />
          </mxGeometry>
        </mxCell>
        <mxCell id="dCjNt5SbbcOR6OjELl-c-46" value="&lt;font style=&quot;font-size: 8px&quot;&gt;Số điện thoại&lt;/font&gt;" style="shape=partialRectangle;html=1;whiteSpace=wrap;connectable=0;fillColor=none;top=0;left=0;bottom=0;right=0;overflow=hidden;rounded=0;fontFamily=Helvetica;fontSize=10;fontColor=default;strokeColor=default;strokeWidth=1;" vertex="1" parent="dCjNt5SbbcOR6OjELl-c-41">
          <mxGeometry x="390" width="120" height="23" as="geometry">
            <mxRectangle width="120" height="23" as="alternateBounds" />
          </mxGeometry>
        </mxCell>
        <mxCell id="dCjNt5SbbcOR6OjELl-c-48" value="" style="line;strokeWidth=2;html=1;rounded=0;fontFamily=Helvetica;fontSize=12;fontColor=default;fillColor=default;" vertex="1" parent="1">
          <mxGeometry x="230" y="87.5" width="530" height="10" as="geometry" />
        </mxCell>
        <mxCell id="dCjNt5SbbcOR6OjELl-c-49" value="&lt;font style=&quot;font-size: 12px&quot;&gt;ListView&lt;/font&gt;" style="rounded=0;whiteSpace=wrap;html=1;fontFamily=Helvetica;fontSize=8;fontColor=default;strokeColor=default;strokeWidth=1;fillColor=default;gradientColor=none;" vertex="1" parent="1">
          <mxGeometry x="240" y="126.25" width="510" height="333.75" as="geometry" />
        </mxCell>
      </root>
    </mxGraphModel>
  </diagram>
</mxfile>
